<svg xmlns="http://www.w3.org/2000/svg" xmlns:xlink="http://www.w3.org/1999/xlink" contentStyleType="text/css" height="925px" preserveAspectRatio="none" style="width:556px;height:925px;background:#FFFFFF;" version="1.1" viewBox="0 0 556 925" width="556px" zoomAndPan="magnify"><defs/><g><!--class User--><g id="elem_User"><rect codeLine="1" fill="#F1F1F1" height="210.9688" id="User" rx="2.5" ry="2.5" style="stroke:#181818;stroke-width:0.5;" width="406" x="112" y="7"/><ellipse cx="294.75" cy="23" fill="#ADD1B2" rx="11" ry="11" style="stroke:#181818;stroke-width:1.0;"/><path d="M297.7188,28.6406 Q297.1406,28.9375 296.5,29.0781 Q295.8594,29.2344 295.1563,29.2344 Q292.6563,29.2344 291.3281,27.5938 Q290.0156,25.9375 290.0156,22.8125 Q290.0156,19.6875 291.3281,18.0313 Q292.6563,16.375 295.1563,16.375 Q295.8594,16.375 296.5,16.5313 Q297.1563,16.6875 297.7188,16.9844 L297.7188,19.7031 Q297.0938,19.125 296.5,18.8594 Q295.9063,18.5781 295.2813,18.5781 Q293.9375,18.5781 293.25,19.6563 Q292.5625,20.7188 292.5625,22.8125 Q292.5625,24.9063 293.25,25.9844 Q293.9375,27.0469 295.2813,27.0469 Q295.9063,27.0469 296.5,26.7813 Q297.0938,26.5 297.7188,25.9219 L297.7188,28.6406 Z " fill="#000000"/><text fill="#000000" font-family="sans-serif" font-size="14" lengthAdjust="spacing" textLength="32" x="315.25" y="27.8467">User</text><line style="stroke:#181818;stroke-width:0.5;" x1="113" x2="517" y1="39" y2="39"/><rect fill="none" height="6" style="stroke:#C82930;stroke-width:1.0;" width="6" x="120" y="49.6484"/><text fill="#000000" font-family="sans-serif" font-size="14" lengthAdjust="spacing" textLength="69" x="132" y="55.9951">userId: int</text><rect fill="none" height="6" style="stroke:#C82930;stroke-width:1.0;" width="6" x="120" y="65.9453"/><text fill="#000000" font-family="sans-serif" font-size="14" lengthAdjust="spacing" textLength="88" x="132" y="72.292">name: String</text><rect fill="none" height="6" style="stroke:#C82930;stroke-width:1.0;" width="6" x="120" y="82.2422"/><text fill="#000000" font-family="sans-serif" font-size="14" lengthAdjust="spacing" textLength="105" x="132" y="88.5889">address: String</text><rect fill="none" height="6" style="stroke:#C82930;stroke-width:1.0;" width="6" x="120" y="98.5391"/><text fill="#000000" font-family="sans-serif" font-size="14" lengthAdjust="spacing" textLength="85" x="132" y="104.8857">email: String</text><rect fill="none" height="6" style="stroke:#C82930;stroke-width:1.0;" width="6" x="120" y="114.8359"/><text fill="#000000" font-family="sans-serif" font-size="14" lengthAdjust="spacing" textLength="116" x="132" y="121.1826">password: String</text><line style="stroke:#181818;stroke-width:0.5;" x1="113" x2="517" y1="128.4844" y2="128.4844"/><ellipse cx="123" cy="142.1328" fill="#84BE84" rx="3" ry="3" style="stroke:#038048;stroke-width:1.0;"/><text fill="#000000" font-family="sans-serif" font-size="14" lengthAdjust="spacing" textLength="100" x="132" y="145.4795">register(): void</text><ellipse cx="123" cy="158.4297" fill="#84BE84" rx="3" ry="3" style="stroke:#038048;stroke-width:1.0;"/><text fill="#000000" font-family="sans-serif" font-size="14" lengthAdjust="spacing" textLength="317" x="132" y="161.7764">login(email: String, password: String): boolean</text><ellipse cx="123" cy="174.7266" fill="#84BE84" rx="3" ry="3" style="stroke:#038048;stroke-width:1.0;"/><text fill="#000000" font-family="sans-serif" font-size="14" lengthAdjust="spacing" textLength="380" x="132" y="178.0732">searchRestaurants(keyword: String): List&lt;Restaurant&gt;</text><ellipse cx="123" cy="191.0234" fill="#84BE84" rx="3" ry="3" style="stroke:#038048;stroke-width:1.0;"/><text fill="#000000" font-family="sans-serif" font-size="14" lengthAdjust="spacing" textLength="297" x="132" y="194.3701">placeOrder(items: List&lt;OrderItem&gt;): Order</text><ellipse cx="123" cy="207.3203" fill="#84BE84" rx="3" ry="3" style="stroke:#038048;stroke-width:1.0;"/><text fill="#000000" font-family="sans-serif" font-size="14" lengthAdjust="spacing" textLength="250" x="132" y="210.667">trackOrder(orderId: int): OrderStatus</text></g><!--class Restaurant--><g id="elem_Restaurant"><rect codeLine="14" fill="#F1F1F1" height="162.0781" id="Restaurant" rx="2.5" ry="2.5" style="stroke:#181818;stroke-width:0.5;" width="364" x="7" y="294.97"/><ellipse cx="146.75" cy="310.97" fill="#ADD1B2" rx="11" ry="11" style="stroke:#181818;stroke-width:1.0;"/><path d="M149.7188,316.6106 Q149.1406,316.9075 148.5,317.0481 Q147.8594,317.2044 147.1563,317.2044 Q144.6563,317.2044 143.3281,315.5637 Q142.0156,313.9075 142.0156,310.7825 Q142.0156,307.6575 143.3281,306.0012 Q144.6563,304.345 147.1563,304.345 Q147.8594,304.345 148.5,304.5012 Q149.1563,304.6575 149.7188,304.9544 L149.7188,307.6731 Q149.0938,307.095 148.5,306.8294 Q147.9063,306.5481 147.2813,306.5481 Q145.9375,306.5481 145.25,307.6262 Q144.5625,308.6887 144.5625,310.7825 Q144.5625,312.8762 145.25,313.9544 Q145.9375,315.0169 147.2813,315.0169 Q147.9063,315.0169 148.5,314.7512 Q149.0938,314.47 149.7188,313.8919 L149.7188,316.6106 Z " fill="#000000"/><text fill="#000000" font-family="sans-serif" font-size="14" lengthAdjust="spacing" textLength="76" x="167.25" y="315.8167">Restaurant</text><line style="stroke:#181818;stroke-width:0.5;" x1="8" x2="370" y1="326.97" y2="326.97"/><rect fill="none" height="6" style="stroke:#C82930;stroke-width:1.0;" width="6" x="15" y="337.6184"/><text fill="#000000" font-family="sans-serif" font-size="14" lengthAdjust="spacing" textLength="109" x="27" y="343.9651">restaurantId: int</text><rect fill="none" height="6" style="stroke:#C82930;stroke-width:1.0;" width="6" x="15" y="353.9153"/><text fill="#000000" font-family="sans-serif" font-size="14" lengthAdjust="spacing" textLength="88" x="27" y="360.262">name: String</text><rect fill="none" height="6" style="stroke:#C82930;stroke-width:1.0;" width="6" x="15" y="370.2122"/><text fill="#000000" font-family="sans-serif" font-size="14" lengthAdjust="spacing" textLength="103" x="27" y="376.5589">location: String</text><rect fill="none" height="6" style="stroke:#C82930;stroke-width:1.0;" width="6" x="15" y="386.5091"/><text fill="#000000" font-family="sans-serif" font-size="14" lengthAdjust="spacing" textLength="203" x="27" y="392.8557">menuItems: List&lt;MenuItem&gt;</text><line style="stroke:#181818;stroke-width:0.5;" x1="8" x2="370" y1="400.1575" y2="400.1575"/><ellipse cx="18" cy="413.8059" fill="#84BE84" rx="3" ry="3" style="stroke:#038048;stroke-width:1.0;"/><text fill="#000000" font-family="sans-serif" font-size="14" lengthAdjust="spacing" textLength="338" x="27" y="417.1526">updateMenu(menuItems: List&lt;MenuItem&gt;): void</text><ellipse cx="18" cy="430.1028" fill="#84BE84" rx="3" ry="3" style="stroke:#038048;stroke-width:1.0;"/><text fill="#000000" font-family="sans-serif" font-size="14" lengthAdjust="spacing" textLength="218" x="27" y="433.4495">acceptOrder(order: Order): void</text><ellipse cx="18" cy="446.3997" fill="#84BE84" rx="3" ry="3" style="stroke:#038048;stroke-width:1.0;"/><text fill="#000000" font-family="sans-serif" font-size="14" lengthAdjust="spacing" textLength="210" x="27" y="449.7464">rejectOrder(order: Order): void</text></g><!--class MenuItem--><g id="elem_MenuItem"><rect codeLine="24" fill="#F1F1F1" height="96.8906" id="MenuItem" rx="2.5" ry="2.5" style="stroke:#181818;stroke-width:0.5;" width="117" x="130.5" y="582.94"/><ellipse cx="152.7" cy="598.94" fill="#ADD1B2" rx="11" ry="11" style="stroke:#181818;stroke-width:1.0;"/><path d="M155.6688,604.5806 Q155.0906,604.8775 154.45,605.0181 Q153.8094,605.1744 153.1063,605.1744 Q150.6063,605.1744 149.2781,603.5337 Q147.9656,601.8775 147.9656,598.7525 Q147.9656,595.6275 149.2781,593.9712 Q150.6063,592.315 153.1063,592.315 Q153.8094,592.315 154.45,592.4712 Q155.1063,592.6275 155.6688,592.9244 L155.6688,595.6431 Q155.0438,595.065 154.45,594.7994 Q153.8563,594.5181 153.2313,594.5181 Q151.8875,594.5181 151.2,595.5962 Q150.5125,596.6587 150.5125,598.7525 Q150.5125,600.8462 151.2,601.9244 Q151.8875,602.9869 153.2313,602.9869 Q153.8563,602.9869 154.45,602.7212 Q155.0438,602.44 155.6688,601.8619 L155.6688,604.5806 Z " fill="#000000"/><text fill="#000000" font-family="sans-serif" font-size="14" lengthAdjust="spacing" textLength="69" x="168.3" y="603.7867">MenuItem</text><line style="stroke:#181818;stroke-width:0.5;" x1="131.5" x2="246.5" y1="614.94" y2="614.94"/><rect fill="none" height="6" style="stroke:#C82930;stroke-width:1.0;" width="6" x="138.5" y="625.5884"/><text fill="#000000" font-family="sans-serif" font-size="14" lengthAdjust="spacing" textLength="68" x="150.5" y="631.9351">itemId: int</text><rect fill="none" height="6" style="stroke:#C82930;stroke-width:1.0;" width="6" x="138.5" y="641.8853"/><text fill="#000000" font-family="sans-serif" font-size="14" lengthAdjust="spacing" textLength="88" x="150.5" y="648.232">name: String</text><rect fill="none" height="6" style="stroke:#C82930;stroke-width:1.0;" width="6" x="138.5" y="658.1822"/><text fill="#000000" font-family="sans-serif" font-size="14" lengthAdjust="spacing" textLength="91" x="150.5" y="664.5289">price: double</text><line style="stroke:#181818;stroke-width:0.5;" x1="131.5" x2="246.5" y1="671.8306" y2="671.8306"/></g><!--class Order--><g id="elem_Order"><rect codeLine="30" fill="#F1F1F1" height="194.6719" id="Order" rx="2.5" ry="2.5" style="stroke:#181818;stroke-width:0.5;" width="189" x="314.5" y="534.05"/><ellipse cx="385.25" cy="550.05" fill="#ADD1B2" rx="11" ry="11" style="stroke:#181818;stroke-width:1.0;"/><path d="M388.2188,555.6906 Q387.6406,555.9875 387,556.1281 Q386.3594,556.2844 385.6563,556.2844 Q383.1563,556.2844 381.8281,554.6438 Q380.5156,552.9875 380.5156,549.8625 Q380.5156,546.7375 381.8281,545.0813 Q383.1563,543.425 385.6563,543.425 Q386.3594,543.425 387,543.5813 Q387.6563,543.7375 388.2188,544.0344 L388.2188,546.7531 Q387.5938,546.175 387,545.9094 Q386.4063,545.6281 385.7813,545.6281 Q384.4375,545.6281 383.75,546.7063 Q383.0625,547.7688 383.0625,549.8625 Q383.0625,551.9563 383.75,553.0344 Q384.4375,554.0969 385.7813,554.0969 Q386.4063,554.0969 387,553.8313 Q387.5938,553.55 388.2188,552.9719 L388.2188,555.6906 Z " fill="#000000"/><text fill="#000000" font-family="sans-serif" font-size="14" lengthAdjust="spacing" textLength="39" x="405.75" y="554.8967">Order</text><line style="stroke:#181818;stroke-width:0.5;" x1="315.5" x2="502.5" y1="566.05" y2="566.05"/><rect fill="none" height="6" style="stroke:#C82930;stroke-width:1.0;" width="6" x="322.5" y="576.6984"/><text fill="#000000" font-family="sans-serif" font-size="14" lengthAdjust="spacing" textLength="75" x="334.5" y="583.0451">orderId: int</text><rect fill="none" height="6" style="stroke:#C82930;stroke-width:1.0;" width="6" x="322.5" y="592.9953"/><text fill="#000000" font-family="sans-serif" font-size="14" lengthAdjust="spacing" textLength="163" x="334.5" y="599.342">items: List&lt;OrderItem&gt;</text><rect fill="none" height="6" style="stroke:#C82930;stroke-width:1.0;" width="6" x="322.5" y="609.2922"/><text fill="#000000" font-family="sans-serif" font-size="14" lengthAdjust="spacing" textLength="135" x="334.5" y="615.6389">status: OrderStatus</text><rect fill="none" height="6" style="stroke:#C82930;stroke-width:1.0;" width="6" x="322.5" y="625.5891"/><text fill="#000000" font-family="sans-serif" font-size="14" lengthAdjust="spacing" textLength="141" x="334.5" y="631.9357">totalAmount: double</text><rect fill="none" height="6" style="stroke:#C82930;stroke-width:1.0;" width="6" x="322.5" y="641.8859"/><text fill="#000000" font-family="sans-serif" font-size="14" lengthAdjust="spacing" textLength="72" x="334.5" y="648.2326">user: User</text><rect fill="none" height="6" style="stroke:#C82930;stroke-width:1.0;" width="6" x="322.5" y="658.1828"/><text fill="#000000" font-family="sans-serif" font-size="14" lengthAdjust="spacing" textLength="156" x="334.5" y="664.5295">restaurant: Restaurant</text><line style="stroke:#181818;stroke-width:0.5;" x1="315.5" x2="502.5" y1="671.8313" y2="671.8313"/><ellipse cx="325.5" cy="685.4797" fill="#84BE84" rx="3" ry="3" style="stroke:#038048;stroke-width:1.0;"/><text fill="#000000" font-family="sans-serif" font-size="14" lengthAdjust="spacing" textLength="162" x="334.5" y="688.8264">calculateTotal(): double</text><ellipse cx="325.5" cy="701.7766" fill="#84BE84" rx="3" ry="3" style="stroke:#038048;stroke-width:1.0;"/><text fill="#000000" font-family="sans-serif" font-size="14" lengthAdjust="spacing" textLength="137" x="334.5" y="705.1232">confirmOrder(): void</text><ellipse cx="325.5" cy="718.0734" fill="#84BE84" rx="3" ry="3" style="stroke:#038048;stroke-width:1.0;"/><text fill="#000000" font-family="sans-serif" font-size="14" lengthAdjust="spacing" textLength="131" x="334.5" y="721.4201">cancelOrder(): void</text></g><!--class OrderItem--><g id="elem_OrderItem"><rect codeLine="42" fill="#F1F1F1" height="113.1875" id="OrderItem" rx="2.5" ry="2.5" style="stroke:#181818;stroke-width:0.5;" width="145" x="254.5" y="805.72"/><ellipse cx="289.3" cy="821.72" fill="#ADD1B2" rx="11" ry="11" style="stroke:#181818;stroke-width:1.0;"/><path d="M292.2688,827.3606 Q291.6906,827.6575 291.05,827.7981 Q290.4094,827.9544 289.7063,827.9544 Q287.2063,827.9544 285.8781,826.3137 Q284.5656,824.6575 284.5656,821.5325 Q284.5656,818.4075 285.8781,816.7512 Q287.2063,815.095 289.7063,815.095 Q290.4094,815.095 291.05,815.2512 Q291.7063,815.4075 292.2688,815.7044 L292.2688,818.4231 Q291.6438,817.845 291.05,817.5794 Q290.4563,817.2981 289.8313,817.2981 Q288.4875,817.2981 287.8,818.3762 Q287.1125,819.4387 287.1125,821.5325 Q287.1125,823.6262 287.8,824.7044 Q288.4875,825.7669 289.8313,825.7669 Q290.4563,825.7669 291.05,825.5012 Q291.6438,825.22 292.2688,824.6419 L292.2688,827.3606 Z " fill="#000000"/><text fill="#000000" font-family="sans-serif" font-size="14" lengthAdjust="spacing" textLength="69" x="307.7" y="826.5667">OrderItem</text><line style="stroke:#181818;stroke-width:0.5;" x1="255.5" x2="398.5" y1="837.72" y2="837.72"/><rect fill="none" height="6" style="stroke:#C82930;stroke-width:1.0;" width="6" x="262.5" y="848.3684"/><text fill="#000000" font-family="sans-serif" font-size="14" lengthAdjust="spacing" textLength="68" x="274.5" y="854.7151">itemId: int</text><rect fill="none" height="6" style="stroke:#C82930;stroke-width:1.0;" width="6" x="262.5" y="864.6653"/><text fill="#000000" font-family="sans-serif" font-size="14" lengthAdjust="spacing" textLength="119" x="274.5" y="871.012">itemName: String</text><rect fill="none" height="6" style="stroke:#C82930;stroke-width:1.0;" width="6" x="262.5" y="880.9622"/><text fill="#000000" font-family="sans-serif" font-size="14" lengthAdjust="spacing" textLength="81" x="274.5" y="887.3089">quantity: int</text><rect fill="none" height="6" style="stroke:#C82930;stroke-width:1.0;" width="6" x="262.5" y="897.2591"/><text fill="#000000" font-family="sans-serif" font-size="14" lengthAdjust="spacing" textLength="91" x="274.5" y="903.6057">price: double</text><line style="stroke:#181818;stroke-width:0.5;" x1="255.5" x2="398.5" y1="910.9075" y2="910.9075"/></g><!--class OrderStatus--><g id="elem_OrderStatus"><rect codeLine="49" fill="#F1F1F1" height="80.5938" id="OrderStatus" rx="2.5" ry="2.5" style="stroke:#181818;stroke-width:0.5;" width="115" x="434.5" y="822.02"/><ellipse cx="449.5" cy="838.02" fill="#ADD1B2" rx="11" ry="11" style="stroke:#181818;stroke-width:1.0;"/><path d="M452.4688,843.6606 Q451.8906,843.9575 451.25,844.0981 Q450.6094,844.2544 449.9063,844.2544 Q447.4063,844.2544 446.0781,842.6138 Q444.7656,840.9575 444.7656,837.8325 Q444.7656,834.7075 446.0781,833.0513 Q447.4063,831.395 449.9063,831.395 Q450.6094,831.395 451.25,831.5513 Q451.9063,831.7075 452.4688,832.0044 L452.4688,834.7231 Q451.8438,834.145 451.25,833.8794 Q450.6563,833.5981 450.0313,833.5981 Q448.6875,833.5981 448,834.6763 Q447.3125,835.7388 447.3125,837.8325 Q447.3125,839.9263 448,841.0044 Q448.6875,842.0669 450.0313,842.0669 Q450.6563,842.0669 451.25,841.8013 Q451.8438,841.52 452.4688,840.9419 L452.4688,843.6606 Z " fill="#000000"/><text fill="#000000" font-family="sans-serif" font-size="14" lengthAdjust="spacing" textLength="83" x="463.5" y="842.8667">OrderStatus</text><line style="stroke:#181818;stroke-width:0.5;" x1="435.5" x2="548.5" y1="854.02" y2="854.02"/><rect fill="none" height="6" style="stroke:#C82930;stroke-width:1.0;" width="6" x="442.5" y="864.6684"/><text fill="#000000" font-family="sans-serif" font-size="14" lengthAdjust="spacing" textLength="81" x="454.5" y="871.0151">statusId: int</text><rect fill="none" height="6" style="stroke:#C82930;stroke-width:1.0;" width="6" x="442.5" y="880.9653"/><text fill="#000000" font-family="sans-serif" font-size="14" lengthAdjust="spacing" textLength="88" x="454.5" y="887.312">name: String</text><line style="stroke:#181818;stroke-width:0.5;" x1="435.5" x2="548.5" y1="894.6138" y2="894.6138"/></g><!--link User to Order--><g id="link_User_Order"><path codeLine="54" d="M364.43,218.12 C374.19,242.82 383.2,269.42 389,294.97 C406.96,374.04 411.2896,460.13 411.5196,527.79 " fill="none" id="User-to-Order" style="stroke:#181818;stroke-width:1.0;"/><polygon fill="#181818" points="411.54,533.79,415.5094,524.7765,411.523,528.79,407.5094,524.8036,411.54,533.79" style="stroke:#181818;stroke-width:1.0;"/><text fill="#000000" font-family="sans-serif" font-size="13" lengthAdjust="spacing" textLength="41" x="411" y="380.5769">places</text><text fill="#000000" font-family="sans-serif" font-size="13" lengthAdjust="spacing" textLength="8" x="359.6243" y="238.1464">1</text><text fill="#000000" font-family="sans-serif" font-size="13" lengthAdjust="spacing" textLength="7" x="404.4695" y="523.1438">*</text></g><!--link Restaurant to Order--><g id="link_Restaurant_Order"><path codeLine="55" d="M258.91,457.53 C279.92,481.73 299.2671,503.9987 321.0871,529.1387 " fill="none" id="Restaurant-to-Order" style="stroke:#181818;stroke-width:1.0;"/><polygon fill="#181818" points="325.02,533.67,322.1415,524.2512,321.7426,529.8939,316.0998,529.495,325.02,533.67" style="stroke:#181818;stroke-width:1.0;"/><text fill="#000000" font-family="sans-serif" font-size="13" lengthAdjust="spacing" textLength="53" x="300" y="500.1169">receives</text><text fill="#000000" font-family="sans-serif" font-size="13" lengthAdjust="spacing" textLength="8" x="256.5741" y="477.2528">1</text><text fill="#000000" font-family="sans-serif" font-size="13" lengthAdjust="spacing" textLength="7" x="311.5957" y="523.015">*</text></g><!--link Order to OrderItem--><g id="link_Order_OrderItem"><path codeLine="56" d="M374.34,729.14 C365.03,755.13 357.3053,776.7322 349.0753,799.6822 " fill="none" id="Order-to-OrderItem" style="stroke:#181818;stroke-width:1.0;"/><polygon fill="#181818" points="347.05,805.33,353.8532,798.2085,348.7378,800.6235,346.3228,795.508,347.05,805.33" style="stroke:#181818;stroke-width:1.0;"/><text fill="#000000" font-family="sans-serif" font-size="13" lengthAdjust="spacing" textLength="52" x="365" y="771.7869">includes</text><text fill="#000000" font-family="sans-serif" font-size="13" lengthAdjust="spacing" textLength="8" x="363.5009" y="748.9414">1</text><text fill="#000000" font-family="sans-serif" font-size="13" lengthAdjust="spacing" textLength="7" x="342.067" y="794.546">*</text></g><!--link Order to OrderStatus--><g id="link_Order_OrderStatus"><path codeLine="57" d="M444.08,729.14 C455.85,761.6 466.275,790.3692 475.545,815.9392 " fill="none" id="Order-to-OrderStatus" style="stroke:#181818;stroke-width:1.0;"/><polygon fill="#181818" points="477.59,821.58,478.2831,811.7556,475.8859,816.8794,470.762,814.4822,477.59,821.58" style="stroke:#181818;stroke-width:1.0;"/><text fill="#000000" font-family="sans-serif" font-size="13" lengthAdjust="spacing" textLength="23" x="462" y="771.7869">has</text><text fill="#000000" font-family="sans-serif" font-size="13" lengthAdjust="spacing" textLength="8" x="438.3624" y="748.9414">1</text><text fill="#000000" font-family="sans-serif" font-size="13" lengthAdjust="spacing" textLength="8" x="466.6559" y="810.9697">1</text></g><!--link User to Restaurant--><g id="link_User_Restaurant"><path codeLine="58" d="M264.48,218.35 C252.22,243.79 241.914,265.1845 230.304,289.2845 " fill="none" id="User-to-Restaurant" style="stroke:#181818;stroke-width:1.0;"/><polygon fill="#181818" points="227.7,294.69,235.2097,288.3178,229.87,290.1855,228.0024,284.8458,227.7,294.69" style="stroke:#181818;stroke-width:1.0;"/><text fill="#000000" font-family="sans-serif" font-size="13" lengthAdjust="spacing" textLength="85" x="250" y="261.0369">interacts with</text><text fill="#000000" font-family="sans-serif" font-size="13" lengthAdjust="spacing" textLength="8" x="252.8169" y="238.0381">1</text><text fill="#000000" font-family="sans-serif" font-size="13" lengthAdjust="spacing" textLength="7" x="223.835" y="283.8524">*</text></g><!--reverse link Restaurant to MenuItem--><g id="link_Restaurant_MenuItem"><path codeLine="59" d="M189,469.53 C189,510.68 189,547.37 189,582.56 " fill="none" id="Restaurant-backto-MenuItem" style="stroke:#181818;stroke-width:1.0;"/><polygon fill="#181818" points="189,457.53,185,463.53,189,469.53,193,463.53,189,457.53" style="stroke:#181818;stroke-width:1.0;"/><text fill="#000000" font-family="sans-serif" font-size="13" lengthAdjust="spacing" textLength="23" x="190" y="500.1169">has</text><text fill="#000000" font-family="sans-serif" font-size="13" lengthAdjust="spacing" textLength="8" x="180.6563" y="477.2528">1</text><text fill="#000000" font-family="sans-serif" font-size="13" lengthAdjust="spacing" textLength="7" x="181.5078" y="571.7155">*</text></g><!--SRC=[XLHDZziW4BtxLo2VqdHzsAjLHUenKhihDUqFcC0qeOl12qEYgEf_ByR40RjDVEFDcu_t1imLECT-EBJiTyN2rp0V3blHCgaf8HewRDcEhDI7184G5fsReTY1L3Ei3mtEnee2_iWi7gGZjAiFBJiPAHAip47gLL7dQL4YfEoDKGWwPJa4ou_Vq15u2vhSwWqliumleTsd6sMJKdi575-j29D8miubOaIs0TY4r7X8VBB0tqQ-YPpHgIjhHq3ULN-gYaTdRmqdV-q4FNHP6GuaZPx17Mg_pORzcivNJRuNG3YWg_zIIzk1S-mfavNab2oBlv3VOKsghrqcpOEr3zNsLlA02UFt2c_5OekfKcvwLdovjnHqSI7bTiO86GBrkJDUqzJqzWBQ-2WMAskpZIPNE2ZkLJ3y-r1mkCzPiH0s-gUqtUXQwIS7pL6LaLBs0nC7v6LfvBiFqqcwvDHxvewsJ7r6o-wiAsJ7FqRzNBEcsR1wNQSjjUDxSbLsx__5iiXHdW9l11QKg7lepvKNIzfpNGpUiYEuvKZP354AXgTBZfqb7UVphPicfamNDvRy2m00]--></g></svg>